<svg width="110" height="19" viewBox="0 0 110 19" fill="none" xmlns="http://www.w3.org/2000/svg">
<path d="M17.5017 18H15.0057C14.7257 18 14.4937 17.932 14.3097 17.796C14.1337 17.652 14.0057 17.476 13.9257 17.268L12.6297 13.728H5.44174L4.14574 17.268C4.08174 17.452 3.95374 17.62 3.76174 17.772C3.57774 17.924 3.34974 18 3.07774 18H0.569742L7.38574 0.647999H10.6857L17.5017 18ZM6.26974 11.448H11.8017L9.68974 5.676C9.59374 5.42 9.48574 5.12 9.36574 4.776C9.25374 4.424 9.14174 4.044 9.02974 3.636C8.91774 4.044 8.80574 4.424 8.69374 4.776C8.58974 5.128 8.48574 5.436 8.38174 5.7L6.26974 11.448ZM21.1808 0.647999C21.3248 0.647999 21.4448 0.655999 21.5408 0.671999C21.6368 0.679999 21.7208 0.703999 21.7928 0.743999C21.8728 0.776 21.9488 0.828 22.0208 0.899999C22.0928 0.963999 22.1728 1.052 22.2608 1.164L31.3688 12.768C31.3368 12.488 31.3128 12.216 31.2968 11.952C31.2888 11.68 31.2848 11.428 31.2848 11.196V0.647999H34.1288V18H32.4608C32.2048 18 31.9928 17.96 31.8248 17.88C31.6568 17.8 31.4928 17.656 31.3328 17.448L22.2608 5.892C22.2848 6.148 22.3008 6.404 22.3088 6.66C22.3248 6.908 22.3328 7.136 22.3328 7.344V18H19.4888V0.647999H21.1808ZM45.7974 15.624C46.5254 15.624 47.1574 15.56 47.6934 15.432C48.2374 15.296 48.7534 15.112 49.2414 14.88V11.724H47.0694C46.8614 11.724 46.6974 11.668 46.5774 11.556C46.4574 11.436 46.3974 11.292 46.3974 11.124V9.3H52.1694V16.32C51.7294 16.64 51.2694 16.92 50.7894 17.16C50.3174 17.392 49.8094 17.584 49.2654 17.736C48.7294 17.888 48.1534 18 47.5374 18.072C46.9214 18.152 46.2574 18.192 45.5454 18.192C44.2814 18.192 43.1174 17.972 42.0534 17.532C40.9894 17.092 40.0694 16.48 39.2934 15.696C38.5174 14.912 37.9094 13.976 37.4694 12.888C37.0374 11.8 36.8214 10.612 36.8214 9.324C36.8214 8.02 37.0334 6.824 37.4574 5.736C37.8814 4.648 38.4814 3.712 39.2574 2.928C40.0414 2.144 40.9894 1.536 42.1014 1.104C43.2134 0.671999 44.4614 0.456 45.8454 0.456C47.2614 0.456 48.4854 0.668 49.5174 1.092C50.5574 1.508 51.4374 2.052 52.1574 2.724L51.2214 4.188C51.0374 4.484 50.7934 4.632 50.4894 4.632C50.2974 4.632 50.1014 4.568 49.9014 4.44C49.6454 4.288 49.3814 4.136 49.1094 3.984C48.8454 3.832 48.5494 3.7 48.2214 3.588C47.9014 3.476 47.5374 3.384 47.1294 3.312C46.7294 3.24 46.2654 3.204 45.7374 3.204C44.8814 3.204 44.1054 3.348 43.4094 3.636C42.7214 3.924 42.1334 4.336 41.6454 4.872C41.1574 5.408 40.7814 6.052 40.5174 6.804C40.2534 7.556 40.1214 8.396 40.1214 9.324C40.1214 10.324 40.2614 11.216 40.5414 12C40.8214 12.776 41.2134 13.432 41.7174 13.968C42.2214 14.504 42.8214 14.916 43.5174 15.204C44.2134 15.484 44.9734 15.624 45.7974 15.624ZM66.3172 0.647999V3.216H58.6252V8.028H64.6852V10.512H58.6252V15.42H66.3172V18H55.3732V0.647999H66.3172ZM72.5356 15.336H79.4836V18H69.3076V0.647999H72.5356V15.336ZM85.134 15.336H92.082V18H81.906V0.647999H85.134V15.336ZM109.756 18H107.26C106.98 18 106.748 17.932 106.564 17.796C106.388 17.652 106.26 17.476 106.18 17.268L104.884 13.728H97.6964L96.4004 17.268C96.3364 17.452 96.2084 17.62 96.0164 17.772C95.8324 17.924 95.6044 18 95.3324 18H92.8244L99.6404 0.647999H102.94L109.756 18ZM98.5244 11.448H104.056L101.944 5.676C101.848 5.42 101.74 5.12 101.62 4.776C101.508 4.424 101.396 4.044 101.284 3.636C101.172 4.044 101.06 4.424 100.948 4.776C100.844 5.128 100.74 5.436 100.636 5.7L98.5244 11.448Z" fill="#017A9B"/>
</svg>
